<?xml version="1.0" encoding="UTF-8"?>
<svg width="181px" height="32px" viewBox="0 0 181 32" version="1.1" xmlns="http://www.w3.org/2000/svg" xmlns:xlink="http://www.w3.org/1999/xlink">
    <title>Group 10</title>
    <g id="Page-1" stroke="none" stroke-width="1" fill="none" fill-rule="evenodd">
        <g id="MacBook-Pro-14&quot;" transform="translate(-106.000000, -49.000000)" fill="#FFFFFF">
            <g id="Group-10" transform="translate(106.000000, 49.000000)">
                <polygon id="Fill-1" points="25.6537163 5.81288678 21.8961658 9.57043729 21.8961658 20.6711088 25.6537163 24.4278829 33.2119094 24.4278829 33.2119094 20.4113917 25.9134333 20.4113917 25.9134333 9.82976612 36.4950589 9.82976612 36.4950589 27.7114207 23.6951625 27.7114207 23.7025386 31.7283 36.7543878 31.7283 40.5115501 27.9707495 40.5115501 5.81288678"></polygon>
                <polygon id="Fill-2" points="47.5510079 5.81288678 43.7930691 9.57043729 43.7930691 20.6711088 47.5510079 24.4278829 55.109201 24.4278829 55.109201 20.4113917 47.8103367 20.4113917 47.8103367 9.82976612 58.3923505 9.82976612 58.3923505 27.7114207 45.592454 27.7114207 45.5998302 31.7283 58.6512911 31.7283 62.4088416 27.9707495 62.4088416 5.81288678"></polygon>
                <polygon id="Fill-3" points="107.813632 5.81288678 104.056081 9.57043729 104.056081 20.6711088 107.813632 24.4278829 115.371825 24.4278829 115.371825 20.4113917 108.072961 20.4113917 108.072961 9.82976612 118.654586 9.82976612 118.654586 27.7114207 105.855078 27.7114207 105.862454 31.7283 118.914303 31.7283 122.671465 27.9707495 122.671465 5.81288678"></polygon>
                <polygon id="Fill-4" points="82.1599931 9.56935028 82.1599931 20.6707982 85.9163789 24.4283487 100.773436 24.4283487 100.773436 20.4118576 86.176096 20.4118576 86.176096 9.82906733 96.7573334 9.82906733 96.7573334 13.1118287 89.4584691 13.1118287 89.4584691 17.1283198 97.0166622 17.1283198 100.773436 13.3715457 100.773436 5.81179977 85.9163789 5.81179977"></polygon>
                <polygon id="Fill-5" points="1.7896795 5.81323617 1.7896795 9.8297273 14.5973403 9.8297273 14.5973403 20.4113529 4.01687934 20.4113529 4.01687934 17.1282033 11.3157436 17.1282033 11.3157436 13.1117122 3.75755051 13.1117122 0 16.8688745 0 20.67107 3.75755051 24.4286205 18.6142197 24.4286205 18.6142197 9.57078669 14.8570574 5.81323617"></polygon>
                <polygon id="Fill-6" points="127.395016 5.81315853 127.395016 9.82964966 140.203065 9.82964966 140.203065 20.4112753 129.622216 20.4112753 129.622216 17.1285139 136.92108 17.1285139 136.92108 13.1116346 129.362499 13.1116346 125.605336 16.8687969 125.605336 20.6709923 129.362499 24.4285428 144.219556 24.4285428 144.219556 9.57032083 140.462394 5.81315853"></polygon>
                <polygon id="Fill-7" points="148.943417 5.81315853 148.943417 9.82964966 161.751466 9.82964966 161.751466 20.4112753 151.170617 20.4112753 151.170617 17.1285139 158.469481 17.1285139 158.469481 13.1116346 150.9109 13.1116346 147.153738 16.8687969 147.153738 20.6709923 150.9109 24.4285428 165.767957 24.4285428 165.767957 9.57032083 162.010795 5.81315853"></polygon>
                <polygon id="Fill-8" points="169.05002 0 169.05002 20.6725452 172.801359 24.4277664 180.386727 24.4277664 180.386727 20.4136046 173.061076 20.4136046 173.061076 9.83702578 180.386727 9.83702578 180.386727 5.82286395 173.061076 5.82286395 173.061076 0"></polygon>
                <polygon id="Fill-9" points="65.8980179 5.81315853 65.8980179 24.4281546 69.914509 24.4281546 69.914509 9.82964966 75.0525585 9.82964966 75.0525585 13.4862638 79.0686614 13.4862638 79.0686614 9.57032083 75.3118873 5.81315853"></polygon>
            </g>
        </g>
    </g>
</svg>