<svg xmlns="http://www.w3.org/2000/svg" width="164.853" height="51.754" viewBox="0 0 164.853 51.754"><defs><style>.a{fill:#494b52;}.b{fill:#d60929;}</style></defs><path class="a" d="M6.777,28.468V53.357H25.31v-6.2H13.393V43.6H23.616V37.949H13.393V34.674H25.31V28.468Z" transform="translate(19.427 -2.071)"/><path class="a" d="M11.4,41.188c0,7.443,5.015,12.7,12.276,12.98v-6.31c-3.376-.151-5.626-2.761-5.626-6.6,0-3.913,2.2-6.48,5.626-6.639V28.347A12.415,12.415,0,0,0,11.4,41.188" transform="translate(32.685 -2.418)"/><path class="a" d="M19.557,37.471l.166.255,6.465-1.752L26,35.538c-1.794-4.323-6.047-7.053-11.155-7.192v6.3a6,6,0,0,1,4.71,2.826" transform="translate(42.56 -2.42)"/><path class="a" d="M19.958,32.436l-.151.313a5.872,5.872,0,0,1-4.961,3.368v6.333a12.252,12.252,0,0,0,11.4-7.853l.166-.437Z" transform="translate(42.558 9.304)"/><path class="a" d="M3.447,53.353h4.47V34.674h7.366V28.468H3.447Z" transform="translate(9.881 -2.071)"/><path class="a" d="M.117,34.671H7.479v18.68h4.474V28.469H.117Z" transform="translate(0.335 -2.068)"/><path class="b" d="M6.777,46.652H25.31v-6.2H13.393V36.9H23.558V31.244H13.393V27.965H25.31v-6.2H6.777Z" transform="translate(19.427 -21.291)"/><rect class="b" width="6.604" height="11.928" transform="translate(45.781 13.429)"/><path class="b" d="M22.351,37.043h6.507V25.115H13.841Z" transform="translate(39.677 -11.682)"/><path class="b" d="M0,34.522A12.578,12.578,0,0,0,12.284,47.467V41.114c-3.453-.394-5.638-2.881-5.638-6.562,0-3.917,2.2-6.48,5.638-6.639V21.642A12.443,12.443,0,0,0,0,34.522" transform="translate(0 -21.638)"/><path class="b" d="M18.317,21.763H11.84V33.68H26.978Z" transform="translate(33.941 -21.291)"/><rect class="b" width="6.608" height="11.917" transform="translate(61.927 0.468)"/><path class="b" d="M8.145,30.755l.162.275,6.469-1.755-.174-.437c-1.686-4.257-6.032-7.045-11.155-7.2v6.295a5.8,5.8,0,0,1,4.7,2.819" transform="translate(9.881 -21.641)"/><path class="b" d="M3.447,30.577H9.081v.565a7.363,7.363,0,0,1-5.634,2.2v6.295a11.91,11.91,0,0,0,5.839-1.763v1.3h6V24.375H3.447Z" transform="translate(9.881 -13.804)"/><path class="b" d="M23.811,33.011H25.93L28.4,25.259h.031L30.9,33.011h2.2l3.275-11.205h-2.5L32,29.18h-.031l-2.332-7.374H27.341L25,28.99h-.027l-1.79-7.184h-2.7Z" transform="translate(58.725 -21.168)"/><path class="b" d="M24.909,33.011h7.9V30.734H27.372V28.453h4.864V26.171H27.372V24.083h5.146V21.806H24.909Z" transform="translate(71.404 -21.168)"/><path class="b" d="M30.463,26.789a3.672,3.672,0,0,0-.816-.773,4.589,4.589,0,0,0-.963-.507,5.419,5.419,0,0,0-1.021-.282,5.859,5.859,0,0,0-.986-.085,6.942,6.942,0,0,0-2.42.414,5.616,5.616,0,0,0-1.914,1.183,5.312,5.312,0,0,0-1.257,1.856,6.785,6.785,0,0,0,0,4.872,5.364,5.364,0,0,0,1.257,1.86,5.667,5.667,0,0,0,1.914,1.179,6.87,6.87,0,0,0,2.42.414,5.534,5.534,0,0,0,1.527-.209,4.916,4.916,0,0,0,1.4-.646,4.23,4.23,0,0,0,1.121-1.09l-2.057-1.539a2.61,2.61,0,0,1-.971.889,2.851,2.851,0,0,1-1.342.313,2.944,2.944,0,0,1-1.249-.267,3.059,3.059,0,0,1-1-.75,3.475,3.475,0,0,1-.669-1.145,4.414,4.414,0,0,1,0-2.892,3.435,3.435,0,0,1,.677-1.141,3.048,3.048,0,0,1,2.324-1.021,2.957,2.957,0,0,1,1.222.24,2.389,2.389,0,0,1,.9.677Z" transform="translate(59.149 -11.605)"/><path class="b" d="M23.594,36.425h2.471V31.58h4.795v4.845H33.33V25.216H30.859V29.4H26.065v-4.18H23.594Z" transform="translate(67.635 -11.393)"/><path class="b" d="M33.289,25.216H31.248L26.4,36.425h2.726l.928-2.374h4.354l.967,2.374h2.788ZM30.83,31.959,32.2,28.476l1.373,3.484Z" transform="translate(75.687 -11.393)"/><path class="b" d="M29.735,36.425H32.21V28.448h.027l4.891,7.977H40.36V25.216H37.89V33h-.031l-4.768-7.787H29.735Z" transform="translate(85.238 -11.393)"/><path class="b" d="M43.666,29.984H39.278v2.281h2.015v1.821a4.517,4.517,0,0,1-.568.255,4.992,4.992,0,0,1-.777.209,5.374,5.374,0,0,1-.978.089,3.715,3.715,0,0,1-1.431-.271,3.167,3.167,0,0,1-1.106-.75,3.418,3.418,0,0,1-.708-1.141,4.158,4.158,0,0,1-.244-1.446,4.256,4.256,0,0,1,.244-1.45,3.38,3.38,0,0,1,.708-1.141,3.135,3.135,0,0,1,1.1-.75,3.714,3.714,0,0,1,1.431-.271,4.649,4.649,0,0,1,1.11.12,3.169,3.169,0,0,1,.885.356,3.24,3.24,0,0,1,.723.584l1.74-1.9a4.689,4.689,0,0,0-1.261-.839,6.2,6.2,0,0,0-1.5-.46,9.243,9.243,0,0,0-1.694-.139,6.927,6.927,0,0,0-2.42.41,5.58,5.58,0,0,0-1.914,1.183,5.3,5.3,0,0,0-1.261,1.86,6.774,6.774,0,0,0,0,4.868A5.338,5.338,0,0,0,34.63,35.32a5.531,5.531,0,0,0,1.914,1.187,6.927,6.927,0,0,0,2.42.41,11.217,11.217,0,0,0,2.424-.251,9.255,9.255,0,0,0,2.277-.824Z" transform="translate(94.36 -11.602)"/><path class="b" d="M36.282,36.425h7.9V34.148H38.753V31.863h4.86V29.585h-4.86V27.5H43.9V25.216H36.282Z" transform="translate(104.006 -11.393)"/><path class="a" d="M28.878,30.374a2.616,2.616,0,0,0-.916-1.044,3.894,3.894,0,0,0-1.357-.545,7.468,7.468,0,0,0-1.647-.159H20.789V39.832H23.26V35.462h1.8a7.361,7.361,0,0,0,1.647-.166,3.693,3.693,0,0,0,1.319-.565,2.728,2.728,0,0,0,.874-1.056,3.923,3.923,0,0,0,.313-1.647A3.686,3.686,0,0,0,28.878,30.374ZM26.5,32.686a1.087,1.087,0,0,1-.391.414,1.826,1.826,0,0,1-.565.217,3.132,3.132,0,0,1-.638.066H23.256V30.718h1.268a5.834,5.834,0,0,1,.731.043,2.612,2.612,0,0,1,.688.182,1.2,1.2,0,0,1,.507.4,1.152,1.152,0,0,1,.2.7A1.366,1.366,0,0,1,26.5,32.686Z" transform="translate(59.594 -1.618)"/><path class="a" d="M34.851,32a5.262,5.262,0,0,0-1.257-1.852,5.633,5.633,0,0,0-1.918-1.183,7.287,7.287,0,0,0-4.841,0,5.654,5.654,0,0,0-1.914,1.183A5.271,5.271,0,0,0,23.669,32a6.741,6.741,0,0,0,0,4.876,5.218,5.218,0,0,0,1.253,1.852,5.594,5.594,0,0,0,1.914,1.183,7.287,7.287,0,0,0,4.841,0,5.516,5.516,0,0,0,1.918-1.183,5.245,5.245,0,0,0,1.257-1.852,6.795,6.795,0,0,0,0-4.876Zm-2.359,3.882a3.388,3.388,0,0,1-.7,1.145,3.208,3.208,0,0,1-1.1.75,3.937,3.937,0,0,1-2.869,0,3.177,3.177,0,0,1-1.09-.75,3.337,3.337,0,0,1-.708-1.145,4.4,4.4,0,0,1,0-2.888,3.338,3.338,0,0,1,.708-1.145,3.177,3.177,0,0,1,1.09-.75,3.937,3.937,0,0,1,2.869,0,3.208,3.208,0,0,1,1.1.75,3.388,3.388,0,0,1,.7,1.145,4.338,4.338,0,0,1,0,2.888Z" transform="translate(66.542 -1.827)"/><path class="a" d="M29.8,39.829h2.115l2.471-7.756h.031l2.475,7.756h2.2l3.279-11.2h-2.5L37.987,36h-.039L35.62,28.627H33.331l-2.347,7.184h-.031l-1.79-7.184H26.472Z" transform="translate(75.885 -1.615)"/><path class="a" d="M30.894,39.829h7.9V37.551H33.365V35.274h4.86V32.992h-4.86V30.9h5.146V28.627H30.894Z" transform="translate(88.561 -1.615)"/><path class="a" d="M39.589,35.1a3.01,3.01,0,0,0,1.338-.572,2.657,2.657,0,0,0,.812-1.063,3.978,3.978,0,0,0-.066-3.062,2.613,2.613,0,0,0-.909-1.048,3.925,3.925,0,0,0-1.353-.561,7.252,7.252,0,0,0-1.624-.162H33.449v11.2H35.92V35.352h1.218l2.343,4.474h2.958Zm-.34-2.382a1.072,1.072,0,0,1-.5.375,2.667,2.667,0,0,1-.673.147c-.24.019-.472.027-.7.023H35.916V30.712h1.616a5.743,5.743,0,0,1,.681.043,2.073,2.073,0,0,1,.615.186,1.1,1.1,0,0,1,.445.394,1.209,1.209,0,0,1,.178.677A1.145,1.145,0,0,1,39.249,32.715Z" transform="translate(95.885 -1.612)"/><path class="a" d="M40.249,39.829h2.471V30.808h3.19V28.627H37.047v2.181h3.2Z" transform="translate(106.199 -1.615)"/><path class="a" d="M51.146,32a5.22,5.22,0,0,0-1.261-1.852,5.58,5.58,0,0,0-1.914-1.183,7.287,7.287,0,0,0-4.841,0,5.654,5.654,0,0,0-1.914,1.183A5.22,5.22,0,0,0,39.964,32a6.741,6.741,0,0,0,0,4.876,5.168,5.168,0,0,0,1.253,1.852,5.594,5.594,0,0,0,1.914,1.183,7.287,7.287,0,0,0,4.841,0,5.464,5.464,0,0,0,1.914-1.183,5.2,5.2,0,0,0,1.261-1.852,6.8,6.8,0,0,0,0-4.876Zm-2.359,3.882a3.337,3.337,0,0,1-.708,1.145,3.156,3.156,0,0,1-1.094.75,3.749,3.749,0,0,1-1.435.271,3.792,3.792,0,0,1-1.435-.271,3.214,3.214,0,0,1-1.09-.75,3.337,3.337,0,0,1-.708-1.145,4.4,4.4,0,0,1,0-2.888,3.337,3.337,0,0,1,.708-1.145,3.215,3.215,0,0,1,1.09-.75,3.792,3.792,0,0,1,1.435-.271,3.749,3.749,0,0,1,1.435.271,3.157,3.157,0,0,1,1.094.75A3.337,3.337,0,0,1,48.788,33a4.338,4.338,0,0,1,0,2.888Z" transform="translate(113.254 -1.827)"/><path class="a" d="M20.814,43.245h7.9V40.972H23.281V38.69h4.864V36.405H23.281V34.321h5.146V32.036H20.814Z" transform="translate(59.665 8.157)"/><path class="a" d="M23.369,43.245H25.84V35.268h.031l4.891,7.977h3.229V32.036H31.52v7.8h-.031l-4.764-7.8H23.369Z" transform="translate(66.99 8.157)"/><path class="a" d="M26.73,43.245h7.9V40.972H29.2V38.69h4.856V36.405H29.2V34.321h5.139V32.036H26.73Z" transform="translate(76.624 8.157)"/><path class="a" d="M35.425,38.515a3.014,3.014,0,0,0,1.338-.576,2.729,2.729,0,0,0,.816-1.063,3.622,3.622,0,0,0,.271-1.434,3.553,3.553,0,0,0-.34-1.632,2.693,2.693,0,0,0-.909-1.048,4.027,4.027,0,0,0-1.349-.561,7.765,7.765,0,0,0-1.628-.166H29.285V43.248H31.76V38.767h1.214l2.343,4.481h2.962Zm-.344-2.37a1.052,1.052,0,0,1-.5.371,2.217,2.217,0,0,1-.669.143c-.24.019-.476.031-.708.027H31.752V34.131h1.62a3.983,3.983,0,0,1,.677.046,2.094,2.094,0,0,1,.619.182,1.061,1.061,0,0,1,.441.394,1.275,1.275,0,0,1,.174.681A1.178,1.178,0,0,1,35.081,36.145Z" transform="translate(83.948 8.154)"/><path class="a" d="M42.525,36.8H38.141v2.281h2.014v1.821a4.259,4.259,0,0,1-.568.251,4.7,4.7,0,0,1-.781.213,5.05,5.05,0,0,1-.978.089A3.757,3.757,0,0,1,36.4,41.19a3.165,3.165,0,0,1-1.1-.754,3.371,3.371,0,0,1-.7-1.141,4.179,4.179,0,0,1-.251-1.442A4.24,4.24,0,0,1,34.6,36.4a3.409,3.409,0,0,1,.7-1.141,3.208,3.208,0,0,1,1.1-.75,3.757,3.757,0,0,1,1.431-.267,4.659,4.659,0,0,1,1.114.12,3.285,3.285,0,0,1,.885.352,3.467,3.467,0,0,1,.723.588l1.744-1.9a4.77,4.77,0,0,0-1.264-.839,6.088,6.088,0,0,0-1.5-.464,10.024,10.024,0,0,0-1.7-.139,7.011,7.011,0,0,0-2.417.41,5.643,5.643,0,0,0-1.918,1.187,5.374,5.374,0,0,0-1.261,1.856,6.839,6.839,0,0,0,0,4.872,5.339,5.339,0,0,0,1.261,1.852,5.574,5.574,0,0,0,1.918,1.183,6.833,6.833,0,0,0,2.417.414,11.217,11.217,0,0,0,2.424-.251,9.088,9.088,0,0,0,2.277-.824V36.8Z" transform="translate(91.112 7.951)"/><path class="a" d="M38.954,43.245h2.475V38.466l4.211-6.43H42.708l-2.517,4.2-2.374-4.2h-3.07l4.207,6.43Z" transform="translate(99.606 8.157)"/></svg>