<?xml version="1.0" encoding="UTF-8"?>
<svg id="Layer_2" data-name="Layer 2" xmlns="http://www.w3.org/2000/svg" viewBox="0 0 329.97 59.44">
  <defs>
    <style>
      .cls-1 {
        fill: #ff463c;
      }

      .cls-2 {
        fill: #5a585a;
      }
    </style>
  </defs>
  <g id="REPOWER">
    <g>
      <path class="cls-2" d="m317.29,34.14c5.84-2.73,9.89-8.6,9.89-15.48,0-9.52-7.72-17.14-17.24-17.14h-27.03v56.48h15v-22.22h3.28l11.81,22.21h16.97l-12.68-23.85Zm-12.62-8.71h-6.67v-13.57h6.67c3.77,0,6.83,3.02,6.83,6.79s-3.06,6.78-6.83,6.78Z"/>
      <polygon class="cls-2" points="258.33 36.09 276.74 36.1 276.74 23.39 258.33 23.38 258.33 14.2 277.59 14.2 277.59 1.51 243.27 1.51 243.27 57.98 277.59 57.99 277.59 45.29 258.33 45.29 258.33 36.09"/>
      <polygon class="cls-2" points="224.32 1.5 218.8 32.9 210.98 1.5 196.77 1.5 188.97 32.98 183.49 1.5 167.9 1.5 179.43 58 196.81 58 203.87 28.73 210.9 58 228.31 58 239.84 1.5 224.32 1.5"/>
      <path class="cls-2" d="m169.31,29.72c-.08-5.89-1.4-12.48-4.34-16.98C159.94,5.05,151.81.09,142.18,0h0s-.08,0-.13,0-.08,0-.13,0h0c-9.62.09-17.76,5.05-22.78,12.73-2.95,4.51-4.26,11.09-4.34,16.98h0c.08,5.9,1.4,12.48,4.34,16.99,5.02,7.69,13.16,12.64,22.78,12.73h0s.08,0,.13,0,.08,0,.13,0h0c9.63-.09,17.76-5.05,22.79-12.73,2.95-4.51,4.26-11.09,4.34-16.99Zm-27.21,15.12c-8.12,0-12.61-5.99-12.61-14.23v-.84c0-8.24,4.49-14.23,12.61-14.23s12.53,5.99,12.53,14.23v.84c0,8.24-4.41,14.23-12.53,14.23Z"/>
      <path class="cls-2" d="m93.01,1.48h-20.47v56.51h14.62v-17.43h6.25c10.79,0,19.54-9.14,19.54-19.93S103.8,1.48,93.01,1.48Zm-1.67,26.56h-4.14v-14.81h4c4.09,0,7.55,3.17,7.55,7.26s-3.32,7.55-7.41,7.55Z"/>
      <g>
        <polygon class="cls-1" points="32.77 57.99 67.09 58 67.09 45.29 47.83 45.29 47.83 40.71 32.77 40.71 32.77 57.99"/>
        <polygon class="cls-1" points="47.83 14.2 67.09 14.2 67.09 1.51 32.76 1.51 32.76 18.69 47.83 18.69 47.83 14.2"/>
        <polygon class="cls-1" points="32.76 23.35 32.77 36.05 66.24 36.05 66.23 23.39 47.83 23.38 47.83 23.35 32.76 23.35"/>
      </g>
      <path class="cls-1" d="m19.75,34.14c5.84-2.73,9.89-8.6,9.89-15.48C29.64,9.13,21.92,1.51,12.39,1.51H0v10.35h7.12c3.77,0,6.83,3.02,6.83,6.79s-3.06,6.78-6.83,6.78H0v10.35h3.64l11.81,22.21h16.98l-12.68-23.85Z"/>
    </g>
  </g>
</svg>