<?xml version="1.0" encoding="UTF-8"?>
<svg width="204px" height="60px" viewBox="0 0 204 60" version="1.1" xmlns="http://www.w3.org/2000/svg" xmlns:xlink="http://www.w3.org/1999/xlink">
    <title>Group 18</title>
    <defs>
        <polygon id="path-1" points="0 59.4280805 203.312316 59.4280805 203.312316 0 0 0"></polygon>
    </defs>
    <g id="Page-1" stroke="none" stroke-width="1" fill="none" fill-rule="evenodd">
        <g id="MacBook-Pro-14&quot;" transform="translate(-106.000000, -51.000000)">
            <g id="Group-18" transform="translate(106.000000, 51.000000)">
                <polygon id="Fill-1" fill="#FFFFFF" points="40.508197 51.9577314 32.7966762 14.8304225 30.9587497 14.8304225 30.9587497 51.9577314 22.7744485 51.9577314 22.7744485 7.47632603 39.7359691 7.47632603 46.9125487 44.543865 48.8102451 44.543865 56.0465947 7.47632603 72.9501384 7.47632603 72.9501384 51.9577314 64.823814 51.9577314 64.823814 14.8304225 62.9858876 14.8304225 55.1566199 51.9577314"></polygon>
                <polygon id="Fill-2" fill="#FFFFFF" points="72.94972 0.238601699 72.94972 7.59269815 102.247164 7.59269815 102.247164 52.0741035 72.94972 52.0741035 72.94972 59.4282 110.37289 59.4282 110.37289 0.238601699"></polygon>
                <polygon id="Fill-3" fill="#FFFFFF" points="0 0.122408888 0 59.3120072 22.7747473 59.3120072 22.7747473 51.9579107 8.12632439 51.9579107 8.12632439 7.47650534 22.7747473 7.47650534 22.7747473 0.122408888"></polygon>
                <polygon id="Fill-4" fill="#FFFFFF" points="131.559849 0.225153457 128.881556 8.15961627 126.222988 0.225153457 123.769431 0.225153457 123.769431 14.8251627 126.283954 14.8251627 126.283954 6.03240322 128.062708 11.7171246 129.719531 11.7171246 131.497688 6.03240322 131.497688 14.8251627 134.014003 14.8251627 134.014003 0.225153457"></polygon>
                <g id="Group-17">
                    <path d="M136.119699,0.225093687 L138.757348,0.225093687 L138.757348,10.2652524 C138.757348,11.2879164 138.856566,11.9830411 139.054404,12.3512241 C139.251645,12.7194071 139.629989,12.9034986 140.188838,12.9034986 C140.802676,12.9034986 141.211502,12.7265795 141.415916,12.3715459 C141.620329,12.01711 141.722536,11.3154106 141.722536,10.2652524 L141.722536,0.225093687 L144.360184,0.225093687 L144.360184,10.2652524 C144.360184,11.1791351 144.312368,11.8742598 144.216736,12.3512241 C144.121702,12.8281884 143.93761,13.2507621 143.665657,13.6189451 C142.997429,14.5597243 141.858811,15.0301139 140.250401,15.0301139 C138.518866,15.0301139 137.319282,14.4850119 136.651652,13.39421 C136.296618,12.7941196 136.119699,11.7511337 136.119699,10.2652524 L136.119699,0.225093687 Z" id="Fill-5" fill="#FFFFFF"></path>
                    <polygon id="Fill-7" fill="#FFFFFF" points="146.466777 14.825342 146.466777 0.225332767 149.104425 0.225332767 149.104425 12.6580831 152.47844 12.6580831 152.47844 14.825342"></polygon>
                    <polygon id="Fill-9" fill="#FFFFFF" points="154.625795 14.825342 154.625795 2.39259169 152.048514 2.39259169 152.048514 0.225332767 159.840127 0.225332767 159.840127 2.39259169 157.263444 2.39259169 157.263444 14.825342"></polygon>
                    <mask id="mask-2" fill="white">
                        <use xlink:href="#path-1"></use>
                    </mask>
                    <g id="Clip-12"></g>
                    <polygon id="Fill-11" fill="#FFFFFF" mask="url(#mask-2)" points="161.169112 14.825342 163.806761 14.825342 163.806761 0.225332767 161.169112 0.225332767"></polygon>
                    <path d="M171.413086,10.4290221 L173.826,10.4290221 C173.811655,11.7104901 173.600667,12.6853382 173.19184,13.3535664 C172.510463,14.4850119 171.371845,15.0504357 169.777182,15.0504357 C168.223163,15.0504357 167.11204,14.5525519 166.444409,13.557382 C165.966847,12.8491079 165.728365,11.6495247 165.728365,9.95863243 L165.728365,5.15312727 C165.728365,3.29966067 166.021238,2.01161793 166.608179,1.28899906 C167.275212,0.45700115 168.318197,0.0410021958 169.736539,0.0410021958 C171.399339,0.0410021958 172.551106,0.668586825 173.19184,1.92196298 C173.491886,2.48140985 173.648483,3.31281006 173.66223,4.41735901 L171.269638,4.41735901 C171.201501,3.54531522 171.065823,2.95179947 170.860812,2.63800716 C170.655801,2.32481255 170.301963,2.16821524 169.798102,2.16821524 C169.251804,2.16821524 168.877644,2.39235261 168.673231,2.84242044 C168.46822,3.29248827 168.366013,4.12448618 168.366013,5.33721876 L168.366013,9.77513864 C168.366013,10.9741241 168.471806,11.7989496 168.683392,12.2490175 C168.89438,12.6984876 169.279299,12.9232227 169.838148,12.9232227 C170.383847,12.9232227 170.775341,12.7325565 171.014421,12.3512241 C171.252903,11.9698917 171.385592,11.32856 171.413086,10.4290221" id="Fill-13" fill="#FFFFFF" mask="url(#mask-2)"></path>
                    <path d="M175.257311,10.2242502 L175.257311,4.82642465 C175.257311,3.09488877 175.580667,1.8582482 176.228573,1.11470984 C176.875882,0.37236688 177.956523,0 179.469898,0 C180.996423,0 182.083639,0.37236688 182.730947,1.11470984 C183.378256,1.8582482 183.702807,3.09488877 183.702807,4.82642465 L183.702807,10.2242502 C183.702807,11.9563837 183.378256,13.1930243 182.730947,13.935965 C182.083639,14.6789056 180.996423,15.0506748 179.469898,15.0506748 C177.956523,15.0506748 176.875882,14.6789056 176.228573,13.935965 C175.580667,13.1930243 175.257311,11.9563837 175.257311,10.2242502 M181.063963,10.0001128 L181.063963,5.05115971 C181.063963,3.93346137 180.952193,3.16661273 180.726861,2.75061377 C180.501528,2.33461482 180.089713,2.12721304 179.49022,2.12721304 C178.876382,2.12721304 178.457395,2.33461482 178.232062,2.75061377 C178.007327,3.16661273 177.89496,3.93346137 177.89496,5.05115971 L177.89496,10.0001128 C177.89496,11.1172134 178.007327,11.8846598 178.232062,12.300061 C178.457395,12.71606 178.876382,12.9234618 179.49022,12.9234618 C180.089713,12.9234618 180.501528,12.71606 180.726861,12.300061 C180.952193,11.8846598 181.063963,11.1172134 181.063963,10.0001128" id="Fill-14" fill="#FFFFFF" mask="url(#mask-2)"></path>
                    <polygon id="Fill-15" fill="#FFFFFF" mask="url(#mask-2)" points="185.583648 14.825342 185.583648 0.225332767 188.200377 0.225332767 191.71784 9.52912547 191.71784 0.225332767 194.171397 0.225332767 194.171397 14.825342 191.697518 14.825342 188.036608 5.39842321 188.036608 14.825342"></polygon>
                    <polygon id="Fill-16" fill="#FFFFFF" mask="url(#mask-2)" points="198.098104 14.825342 198.098104 2.39259169 195.520823 2.39259169 195.520823 0.225332767 203.312436 0.225332767 203.312436 2.39259169 200.735753 2.39259169 200.735753 14.825342"></polygon>
                </g>
            </g>
        </g>
    </g>
</svg>