<svg width="104" height="104" xmlns="http://www.w3.org/2000/svg" xmlns:xlink="http://www.w3.org/1999/xlink" xml:space="preserve" overflow="hidden"><g transform="translate(-589 -460)"><g><g><g><g><path d="M89.3095 20.485C76.4821 16.9707 63.58 11.4977 51.9973 4.65894 51.3822 4.29624 50.6187 4.29624 50.0036 4.65894 38.0866 11.6941 25.8778 16.8706 12.6905 20.485 11.8393 20.7183 11.2487 21.4913 11.2474 22.3739L11.2474 42.4141C11.2474 63.0483 20.7674 76.7068 28.7527 84.5306 37.3471 92.9551 47.3648 97.6131 51.0009 97.6131 54.6371 97.6131 64.651 92.9551 73.2483 84.5278 81.2336 76.704 90.7526 63.0454 90.7526 42.4112L90.7526 22.3758C90.7524 21.4923 90.1616 20.7182 89.3095 20.485ZM86.8303 42.4141C86.8303 61.6854 77.9526 74.4307 70.5028 81.7294 62.05 90.0131 53.0098 93.6889 51 93.6889 48.9902 93.6889 39.95 90.0131 31.4972 81.7294 24.0493 74.4307 15.1697 61.6854 15.1697 42.4141L15.1697 23.8652C27.7846 20.2829 39.5363 15.2849 51.0009 8.61994 62.1832 15.1111 74.5167 20.3547 86.8303 23.8642Z" fill="#000000" fill-rule="nonzero" fill-opacity="1" transform="matrix(1.0098 0 0 1 590 461)"/><path d="M33.6222 23.6451C33.2255 22.6364 32.0862 22.1403 31.0775 22.5371 31.0757 22.5378 31.074 22.5385 31.0722 22.5392 27.5693 23.9199 23.9738 25.1902 20.3849 26.3169 19.5676 26.5738 19.0113 27.3312 19.0107 28.1879L19.0107 35.7614C19.0345 36.8445 19.9318 37.7033 21.0149 37.6795 22.0646 37.6564 22.91 36.811 22.933 35.7614L22.933 29.6225C26.1526 28.5836 29.3675 27.4286 32.5106 26.1904 33.5198 25.7962 34.0181 24.6585 33.6239 23.6495 33.6234 23.648 33.6228 23.6465 33.6222 23.6451Z" fill="#000000" fill-rule="nonzero" fill-opacity="1" transform="matrix(1.0098 0 0 1 590 461)"/><path d="M37.3433 24.0172C37.6141 24.017 37.8819 23.961 38.1301 23.8529L38.1659 23.8368C39.157 23.3995 39.6058 22.2415 39.1685 21.2505 38.7311 20.2595 37.5731 19.8106 36.5821 20.2479L36.55 20.2612C35.559 20.6975 35.1092 21.8546 35.5456 22.8456 35.8593 23.5581 36.5648 24.0176 37.3433 24.0163Z" fill="#000000" fill-rule="nonzero" fill-opacity="1" transform="matrix(1.0098 0 0 1 590 461)"/><path d="M74.3656 67.6222C73.4595 67.0291 72.2443 67.2828 71.6512 68.1888 71.6512 68.1889 71.6512 68.1889 71.6512 68.1889 69.9993 70.708 68.1127 73.0651 66.0167 75.2288 64.27 77.0363 62.3896 78.7094 60.3916 80.2343 59.5561 80.9241 59.438 82.1604 60.1278 82.9959 60.7804 83.7864 61.9315 83.9411 62.7697 83.351 64.9244 81.7063 66.9525 79.9022 68.8368 77.9535 71.106 75.6119 73.1483 73.0606 74.936 70.3337 75.5265 69.4272 75.2712 68.2139 74.3656 67.6222Z" fill="#000000" fill-rule="nonzero" fill-opacity="1" transform="matrix(1.0098 0 0 1 590 461)"/><path d="M55.8356 83.3094 55.7232 83.3756C54.7858 83.918 54.4657 85.1176 55.0082 86.0549 55.5507 86.9923 56.7503 87.3124 57.6876 86.7699L57.8179 86.6934C58.7524 86.1457 59.0659 84.9442 58.5182 84.0098 57.9706 83.0753 56.769 82.7618 55.8346 83.3094Z" fill="#000000" fill-rule="nonzero" fill-opacity="1" transform="matrix(1.0098 0 0 1 590 461)"/><path d="M37.6333 46.9974C35.1112 44.5392 31.074 44.5909 28.6157 47.1129 26.2015 49.5898 26.2019 53.5396 28.6167 56.0159L40.1946 67.5958C42.6854 70.0852 46.7223 70.0852 49.2131 67.5958L73.3833 43.4218C75.8737 40.9314 75.8737 36.8937 73.3833 34.4033 70.8929 31.9129 66.8552 31.9129 64.3648 34.4033L44.7034 54.0676ZM67.1415 37.1752C68.122 36.2383 69.6764 36.2738 70.6133 37.2544 71.52 38.2034 71.52 39.6979 70.6133 40.647L46.4355 64.8248C45.4766 65.7831 43.9226 65.7831 42.9637 64.8248L31.3848 53.2459C30.4256 52.2861 30.426 50.7305 31.3858 49.7713 32.3455 48.8121 33.9011 48.8125 34.8604 49.7722L43.3169 58.2288C44.0826 58.9945 45.3241 58.9945 46.0897 58.2289 46.0897 58.2289 46.0898 58.2288 46.0898 58.2288Z" fill="#000000" fill-rule="nonzero" fill-opacity="1" transform="matrix(1.0098 0 0 1 590 461)"/></g></g></g></g></g></svg>