<svg width="96" height="98" xmlns="http://www.w3.org/2000/svg" xmlns:xlink="http://www.w3.org/1999/xlink" xml:space="preserve" overflow="hidden"><g transform="translate(-592 -194)"><g><g><g><g><path d="M685.905 237.153 685.879 236.885C685.648 234.466 684.174 232.341 681.99 231.276 671.537 226.121 656.323 223.165 640.249 223.165L639.749 223.165C623.675 223.165 608.461 226.121 598.008 231.276 595.823 232.341 594.35 234.466 594.119 236.886L594.093 237.153C593.657 241.671 594.766 246.203 597.238 250.009L597.525 250.45C598.305 251.656 599.316 252.695 600.5 253.509 607.343 258.197 617.173 261.534 628.18 262.909 629.691 263.086 631.199 262.556 632.267 261.473L637.213 256.473C638.736 254.932 641.22 254.918 642.761 256.441 642.772 256.452 642.782 256.462 642.793 256.473L647.74 261.473C648.665 262.409 649.924 262.938 651.24 262.945 651.435 262.945 651.629 262.933 651.822 262.909 662.83 261.534 672.66 258.2 679.5 253.509 680.683 252.695 681.693 251.656 682.472 250.45L682.758 250.01C685.231 246.204 686.34 241.671 685.905 237.153ZM640.249 225.165C653.6 225.165 666.304 227.234 676.073 230.913 676.628 234.419 676.648 237.988 676.132 241.5 666.148 237.3 653.477 235.006 640 235.006 626.523 235.006 613.852 237.3 603.868 241.5 603.352 237.988 603.372 234.419 603.927 230.913 613.7 227.234 626.4 225.165 639.751 225.165ZM596.085 237.347 596.111 237.08C596.267 235.38 597.287 233.881 598.811 233.112 599.757 232.643 600.758 232.199 601.784 231.767 601.332 235.279 601.397 238.839 601.978 242.333 601.585 242.514 601.186 242.692 600.803 242.88 599.469 243.524 598.244 244.371 597.17 245.391 597.167 245.396 597.161 245.397 597.156 245.394 597.155 245.393 597.154 245.392 597.153 245.391 596.191 242.825 595.826 240.075 596.085 237.347ZM599.2 249.359 598.913 248.918C598.592 248.421 598.297 247.909 598.028 247.382 599.062 246.259 600.301 245.343 601.677 244.682 601.909 244.568 602.152 244.462 602.388 244.351 603.312 248.214 604.976 251.86 607.288 255.089 605.319 254.163 603.425 253.084 601.624 251.864 600.658 251.198 599.834 250.346 599.2 249.359ZM651.576 260.92C650.682 261.021 649.79 260.705 649.159 260.063L644.212 255.058C641.913 252.732 638.163 252.71 635.837 255.009 635.821 255.025 635.804 255.042 635.788 255.058L630.841 260.063C630.21 260.705 629.319 261.021 628.424 260.92 622.529 260.224 616.739 258.822 611.178 256.744 607.768 253.002 605.383 248.442 604.255 243.507 614.055 239.307 626.606 237.007 640 237.007 653.394 237.007 665.95 239.307 675.745 243.507 674.617 248.443 672.232 253.003 668.822 256.745 663.261 258.823 657.471 260.224 651.576 260.92ZM681.085 248.92 680.799 249.36C680.163 250.346 679.338 251.195 678.372 251.86 676.571 253.081 674.677 254.159 672.708 255.086 675.02 251.857 676.684 248.21 677.608 244.347 677.844 244.458 678.087 244.564 678.319 244.677 679.704 245.327 680.944 246.247 681.968 247.383 681.7 247.906 681.409 248.422 681.085 248.918ZM682.841 245.4C682.841 245.408 682.831 245.409 682.825 245.4 681.766 244.363 680.541 243.511 679.2 242.879 678.816 242.692 678.418 242.514 678.024 242.332 678.605 238.839 678.67 235.279 678.218 231.767 679.213 232.186 680.184 232.616 681.105 233.067 682.668 233.827 683.723 235.347 683.889 237.077L683.915 237.344C684.174 240.076 683.807 242.831 682.841 245.4Z" stroke="#000000" stroke-width="2" stroke-linecap="butt" stroke-linejoin="miter" stroke-miterlimit="4" stroke-opacity="1" fill="#000000" fill-rule="nonzero" fill-opacity="1"/></g></g></g></g></g></svg>